<?xml version="1.0" encoding="utf-8"?>
<!-- Generator: Adobe Illustrator 23.1.0, SVG Export Plug-In . SVG Version: 6.00 Build 0)  -->
<svg version="1.1" id="Capa_1" xmlns="http://www.w3.org/2000/svg" xmlns:xlink="http://www.w3.org/1999/xlink" x="0px" y="0px"
	 viewBox="0 0 595.28 841.89" style="enable-background:new 0 0 595.28 841.89;" xml:space="preserve">
<style type="text/css">
	.st0{fill:#FFFFFF;}
	.st1{fill-rule:evenodd;clip-rule:evenodd;fill:#FFFFFF;}
</style>
<g>
	<path class="st0" d="M263.36,256.14c0,0-3.31-30.7-42.39-30.7c-39.08,0-36.43,1.96-36.43,1.96s-35.77-7.84-35.77,34.62l1.32,236.98
		c0,0-1.32,20.25,9.94,22.21l30.47,0.65l-0.66-155.33c0,0,1.32-6.53,18.55-6.53s34.44-0.65,34.44-0.65s17.22,3.92,19.21-18.29
		C264.02,318.86,263.36,256.14,263.36,256.14z M220.3,320.17c0,0-3.97,1.96-18.55,1.31c-14.57-0.65-10.6-12.41-10.6-12.41
		l-0.66-33.32c3.31-11.11,2.65-15.68,18.55-14.37c15.9,1.31,13.91,12.41,13.91,12.41s-0.66,27.44,0,36.58
		C223.62,319.51,220.3,320.17,220.3,320.17z"/>
	<path class="st0" d="M330.07,402.84l0.66,85.37c0,0-0.66,31.84,49.62,33.18c50.28,1.33,57.56-29.85,58.89-42.51
		c1.32-12.67,5.29-44.11,5.29-108.1c0,0,3.97-29.33-21.17-29.33c-25.14,0-54.25-0.67-54.25-0.67l-1.98-57.35
		c0,0,0.66-20.67,17.86-19.33c17.2,1.33,18.53,35.6,18.53,47.6c0,12,2.65,11.33,11.25,12c8.6,0.67,19.19,0,19.19,0s9.26,4,9.26-12
		c0-16-1.99-53.6-1.99-53.6s2.65-31.69-28.45-32.36c-31.1-0.67-50.28,0-50.28,0s-31.76-5.64-32.42,47.02l0.66,83.35
		c0,0,0.66,27.33,21.83,24l27.79,1.33c0,0,20.51-2.67,20.51,16.67c0,19.33-0.66,55.44-0.66,55.44s2.65,19.33-19.85,21.33
		c0,0-15.22-15.94-13.23-44.6c1.98-28.67,0.66-26.77,0.66-26.77l-18.9-5.4L330.07,402.84z"/>
	<path class="st1" d="M309.43,511.82c4.9-5.13,8.48-13.41,8.48-26.65l-1.33-236.95c0,0-0.11-12.24-0.11-21.9l-18.29-0.18
		c-3.45-0.81-6.37-1.17-8.82-1.14v33.2h4.42l0.6-21.08l0.07-2.57h2.57h11.2h2.7l-0.05,2.7l-0.68,33.56l-0.05,2.59h-2.59h-18.19
		v35.72h4.34v-27.45v-2.65h2.65h11.2h2.65v2.65v40.07v2.65h-2.65h-18.19v34.6h4.34v-26.33v-2.65h2.65h10.42h2.64l0.01,2.64l0.1,39.7
		l0.01,2.65h-2.65h-17.52v33.97h4.34v-27.02v-2.65h2.65h10.42h2.64l0.01,2.64l0.1,40.27l0.01,2.65h-2.65h-17.52v35.6h4.34v-28.34
		v-2.65h2.65h10.42h2.65v2.65v40.39v2.65h-2.65h-17.41v28.32h4.34V482v-2.65h2.65h10.42h2.65V482V511.82z M284.08,225.83
		c-7.98,2.79-7.9,12.11-7.83,20.35c0,0.31,0,0.62,0.01,0.93l0.52,113.12c0,0-1.33,6.44-18.58,6.44s-34.51,0.64-34.51,0.64
		s-17.25,3.22-19.24,25.12c-1.99,21.9-1.33,98.53-1.33,98.53s3.32,30.27,42.47,30.27c39.15,0,36.5-1.93,36.5-1.93
		s11.96,2.58,22.06-3.31v-31.35h-5.13v21.5v2.65h-2.65h-9.64h-2.65v-2.65v-33.62v-2.65h2.65h17.41v-35.1h-5.13v28.34v2.65h-2.65
		h-9.64h-2.65v-2.65v-40.89v-2.65h2.65h17.51l-0.09-34.97h-5.13v27.02v2.65h-2.65h-9.64h-2.65v-2.65v-39.26v-2.65h2.65h17.51
		l-0.09-34.41h-5.13v26.33v2.65h-2.65h-9.64h-2.65v-2.65v-39.89v-2.65h2.65h18.19v-34.78h-5.91v27.45v2.65h-2.65h-9.64h-2.65v-2.65
		v-41.02v-2.65h2.65h18.25l0.57-28.27h-5.93l-0.6,21.08l-0.07,2.57h-2.57h-9.64h-2.65v-2.65V225.83z M257.52,485.82
		c-15.93-1.29-13.93-12.24-13.93-12.24s0.66-48.3,0-57.32c-0.66-9.02,2.65-9.66,2.65-9.66s3.98-1.93,18.58-1.29
		c14.6,0.64,10.62,12.23,10.62,12.23l0.66,54.1c-0.35,1.16-0.66,2.25-0.95,3.27C272.74,483.49,271.76,486.97,257.52,485.82z"/>
	<path class="st0" d="M149.42,549.22h15.58l8.97,22.47l4.91,13.97l4.81-13.5l9.06-22.94h15.58l-27.94,68.91h-3.02L149.42,549.22z
		 M216.51,616.71v-67.5h13.5v67.5H216.51z M267.55,546.76h1.42l28.41,69.95h-15.2l-2.74-7.27h-22.37l-2.64,7.27h-15.29
		L267.55,546.76z M274.44,596.8l-6.14-17.56l-6.32,17.56H274.44z M302.32,603.21h12.93c1.95,0,3.56-0.66,4.82-1.98
		c1.32-1.32,1.98-2.93,1.98-4.81v-47.2h13.69v47.2c0,6.86-1.7,11.96-5.1,15.29c-3.34,3.34-8.34,5-15.01,5h-13.31V603.21z
		 M350.73,616.71v-67.5h33.8v13.5h-20.3v13.5h17.75v13.5h-17.75v13.5h21.43v13.5H350.73z M396.89,598.21
		c2.89,2.08,5.85,3.52,8.87,4.34c3.08,0.76,5.92,1.13,8.5,1.13l1.89-0.09c1.95-0.13,3.59-0.79,4.91-1.98
		c1.38-1.2,2.08-2.61,2.08-4.25c0-1.95-0.6-3.46-1.79-4.53c-1.2-1.13-2.93-2.11-5.19-2.93c-6.23-2.27-11.14-4.97-14.73-8.12
		c-3.52-3.15-5.29-7.3-5.29-12.46c0-3.71,0.79-7.11,2.36-10.2c1.64-3.08,3.9-5.54,6.8-7.36c2.89-1.83,6.2-2.83,9.91-3.02l2.27-0.09
		c4.15,0,9,0.98,14.54,2.93l-1.7,13.03c-5.1-2.08-9.69-3.02-13.78-2.83c-2.14,0.13-3.81,0.85-5,2.17c-1.13,1.26-1.7,2.83-1.7,4.72
		c0,1.95,0.66,3.49,1.98,4.63c1.32,1.07,3.18,2.01,5.57,2.83c5.98,2.2,10.73,4.97,14.25,8.31c3.52,3.27,5.29,7.4,5.29,12.37
		c0,3.96-0.91,7.52-2.74,10.67c-1.83,3.08-4.44,5.51-7.84,7.27c-3.34,1.76-7.24,2.64-11.71,2.64c-2.64,0-5.66-0.38-9.06-1.13
		c-3.4-0.76-6.86-2.05-10.38-3.87L396.89,598.21z"/>
</g>
</svg>
