<svg xmlns="http://www.w3.org/2000/svg" viewBox="0 0 937.87 869.43"><defs><style>.cls-1{fill:#fff;}.cls-2{fill:#fefefe;}</style></defs><g id="Capa_2" data-name="Capa 2"><g id="Capa_1-2" data-name="Capa 1"><path class="cls-1" d="M574.33,196c0-29.18-.18-58.37,0-87.55.19-22.73,3.28-45,15.13-65C607,14,634.29,2,667.33,1.37c29.78-.55,59.58-.6,89.36-.54,28.18.05,56.36.18,84.53.92,22.16.58,43.64,4.64,61.84,18.52C918.36,31.94,925.85,47.86,926.9,67c1.35,24.3,2.91,48.6,4.22,72.9,1,18.29,2.27,36.58,1.81,54.91-.45,18.11-10.32,26.3-28.12,23.94-3.93-.52-8,0-12,.05-23.35.44-46.7.65-69.94-2-9.78-1.12-13.65-4.56-14.76-14.44-1.29-11.37-1.05-22.9-2.09-34.31-1.75-19.31-5.58-38.16-15.67-55.1-16.86-28.32-56.84-36.1-81.67-15.81-11.6,9.47-17.21,21.88-16.48,37q2.76,57,5.48,114c.41,8.2.51,8.21,8.69,8.28q82.13.66,164.25,1.29c9.5.07,18.87.92,28,3.57,26,7.5,39.84,25.9,39.2,53-1.14,47.87-1.34,95.78-5,143.57-2.72,35.09-6.68,70-12.42,104.77-5.47,33-25.48,55.06-54.26,70.08-21.82,11.39-45.39,17-69.59,20.11A431.51,431.51,0,0,1,687,652.57c-29.22-3.71-57.77-10.1-82.54-27.38-13.2-9.21-23.42-20.79-27.09-37a35.12,35.12,0,0,1-.78-7.16c-.73-60.78-1.36-121.56-2.21-182.33-.06-4,.77-5.4,4.93-6.07,17.25-2.77,34.38-6.31,51.64-9,8.49-1.32,16.59,2.38,24.87,3.77,11.27,1.88,22.37,4.82,33.65,6.59,4.81.75,5.74,2.87,5.79,7.05.2,17.75-1.79,35.34-3.33,53-3.42,39.1,10.77,71.06,39.54,97.07a5.5,5.5,0,0,0,4.32,1.63c16-1.09,31.59-3.87,45.06-13.32,11.35-8,16.27-18.87,16.17-33-.18-24.14,1-48.27,1.37-72.41.3-17.71.63-35.43.34-53.14-.22-13.19-7.73-22-19.2-27.67a69.68,69.68,0,0,0-30.88-7c-33.43,0-66.78-2.26-100.19-2.69-10.43-.14-20.9,1-31.22-1.58-26.86-6.81-39.85-29.7-40.46-52.3-.85-31.17-.22-62.39-.22-93.58Z"/><path class="cls-1" d="M1.15,343.59c0-32.4.14-64.81,0-97.22C.83,191,.19,135.67,0,80.33-.12,45.4,17.13,21.15,49.2,10.44A131.42,131.42,0,0,1,89.5,4c7.65-.09,15.45,1.52,22.84.67,8.37-1,16.73-2,25.14-2.27,38.41-1.25,76.86-3.06,115.25-.5,30,2,58.73,9,83.34,27.68a76.55,76.55,0,0,1,17.76,18.77c5.58,8.48,9.21,17.39,9.26,28.05.23,56,.72,111.91-3,167.78-.46,6.79-.91,13.65-2.79,20.28-5.76,20.37-22,32.71-45,33.06-43.46.67-86.93.81-130.39,1.29-13.5.15-26.92,1.24-39.77,5.84-11.17,4-12.33,5.64-12.26,17.43Q130.57,438,131.32,554c.2,32.21.31,64.41.74,96.62.07,4.8-.77,6.41-6,6.28-28.37-.72-56.75-1.48-85.12-1.26-21.6.16-32.61-14.45-35.79-31.33C2.76,611.67,4,599,3.91,586.32Q3,485.48,2.37,384.64c-.09-13.68,0-27.36,0-41.05ZM234.47,150c0-6.44,0-12.87,0-19.3s.12-12.88.26-19.31c.31-15.22-3.66-21.47-18.21-26.33C198.27,79,179.39,79.2,160.48,81c-11.59,1.08-18.79,7.51-23.27,18.14-3.66,8.67-6.22,17.24-5,26.74a81,81,0,0,1,.6,12.65c-.51,18,2.66,36-.1,54.08-.93,6,2.28,10.85,7.36,14.22a32.14,32.14,0,0,0,13.4,5c21.63,3,43.26,2.08,64.95.21,14.95-1.29,17.05-8.43,16.54-19.85C234.35,178.14,233.91,164.08,234.47,150Z"/><path class="cls-2" d="M403.78,164.72q0-63.39,0-126.8c0-7.29,1-14.43,4.2-21.09,3.44-7.15,9.46-11.23,16.66-13.94,3.48-1.3,4.23-.2,4.21,3.36-.15,24.36.07,48.73-.21,73.08,0,4.86,1.37,6,6,5.83,11.67-.32,23.37-.49,35,.06,5.7.27,6.51-1.84,6.58-6.76.18-13.68,1-27.35,1.3-41,.07-3.79,1.27-4.64,4.88-4.68C497.1,32.62,497,32.48,496.34,47c-.6,14.07-1.1,28.15-1.2,42.23,0,4.93-1.38,6.44-6.45,6.35-18.31-.32-36.64,0-55-.21-3.86,0-5.07.91-5,4.94q.26,46.2,0,92.41c0,3.87.92,5.12,4.95,5,12.27-.27,24.56-.3,36.84,0,4.42.11,5.81-.92,5.73-5.59-.3-18.52,0-37.05-.23-55.57-.07-4.46,1-5.8,5.6-5.7,13,.28,13,0,13,12.71,0,19.73-.18,39.46.14,59.19.07,4.75-1.41,5.51-5.71,5.46-18.52-.24-37.05,0-55.57-.19-3.61,0-4.75.74-4.73,4.58q.27,45.3,0,90.6c0,3.84.84,5.2,4.95,5.11,12.48-.28,25-.25,37.45,0,3.92.08,5.14-1,5.09-5-.21-18.12,0-36.24-.18-54.36-.05-3.91,1-5.06,4.95-5,11.18.14,11.13-.06,11.19,11.38.1,19.32,0,38.65.54,58,.17,6-1.6,7.29-7.33,7.16-17.31-.4-34.63,0-51.94-.23-3.65,0-4.76.8-4.73,4.62q.26,44.69,0,89.39c0,3.91,1.27,4.62,4.81,4.57,12.68-.2,25.37-.23,38.05,0,3.83.07,4.67-1.2,4.64-4.82-.18-18.52,0-37-.18-55.56,0-4,.64-5.54,5.11-5.44,11,.26,11,0,11,10.89.1,20.32.14,40.66.49,61,.08,4.32-.73,5.79-5.48,5.7-17.71-.33-35.43,0-53.14-.23-4.12-.05-5.38.86-5.35,5.2q.31,45.9,0,91.81c0,4.74,1.48,5.65,5.83,5.55q17.81-.44,35.63,0c4.56.11,6.19-.86,6.11-5.86-.33-19.33,0-38.66-.23-58,0-4,1.05-5,5-5,11.17.15,11.17,0,11.17,11.35,0,20.13-.13,40.27.1,60.4.05,4.46-.76,6.14-5.76,6-17.3-.35-34.63,0-51.94-.23-4.22-.05-5.94.62-5.88,5.46.26,25.16.21,50.33,0,75.5,0,4.08.87,5.58,5.27,5.48,12.27-.3,24.56-.27,36.84,0,4.17.09,5.48-1,5.4-5.33-.27-14.5.05-29-.2-43.49-.07-4.07,1.21-5,5.08-5,11.06.12,11.06-.06,11.06,11,0,18.12-.11,36.24.09,54.36,0,3.46-1.16,4.86-4.27,5.91-16,5.42-32.58,8-49.28,6.74-16.4-1.22-32.41,1.83-48.65,2.21-33.82.8-67.65,1.58-101.43.36-29.13-1.06-57.39-6.86-82.62-22.75a81.84,81.84,0,0,1-25.45-24.46c-5.6-8.56-8.81-17.55-8.79-28.18.11-55.55-.48-111.12,1.54-166.65.57-15.67.53-31.51,3.75-46.88,5.72-27.36,25.39-41,50.37-49,8.6-2.72,17.46-2.42,26.3-2.52,34.62-.39,69.24-.68,103.85-1.28,12.48-.21,24.89-1.57,36.75-5.93,9.7-3.56,11-5.52,11-15.75V164.72ZM300,490.39c0,20.3.06,40.61,0,60.91a18.06,18.06,0,0,0,4.66,12.63c4.15,4.68,9.52,7.36,15.35,9.06,17,5,34.43,5.64,51.95,3.93A34.7,34.7,0,0,0,403.39,542c-.23-24.32-1.05-48.65-1.26-73-.15-16.22-2.2-32.46.49-48.68,1-5.84-1.57-10.52-6.25-14.09a31.23,31.23,0,0,0-15.55-5.94c-21.25-2.53-42.52-1.93-63.79-.06-13,1.15-18,6.33-17,19.56C301.91,443.35,300.64,466.87,300,490.39Z"/><path class="cls-2" d="M509,634.86c0-23.06-.19-44.6.15-66.13.08-5.23-1.49-6.24-6.35-6.11-13.07.35-26.17.25-39.25,0-3.5,0-4.36,1-4.32,4.4.17,14.69-.26,29.4.24,44.08.2,6-3,5.39-6.68,5.19-3.46-.18-7.57,1.61-7.41-5.06.42-17.71.27-35.43,0-53.14,0-3.94,1.3-4.6,4.84-4.57,17.92.18,35.84,0,53.76.16,3.75,0,5.11-.69,5.09-4.84q-.29-45.9,0-91.8c0-3.56-.7-4.86-4.59-4.78-13.49.25-27,.3-40.46,0-4.34-.1-4.82,1.6-4.79,5.22.14,19.33-.06,38.66.17,58,.05,4.28-.66,6-5.46,5.74-8.41-.41-8.43-.07-8.43-8.74,0-21.54.15-43.08-.12-64.62-.06-4.66,1.31-5.64,5.73-5.57,17.71.26,35.43,0,53.15.19,3.9,0,5.13-.93,5.09-5q-.39-45.89-.3-91.79c0-3.22-.56-4.58-4.22-4.53-13.69.22-27.38.25-41.07,0-4-.08-4.57,1.36-4.54,4.85.15,18.52-.22,37.05.23,55.56.14,5.95-2.68,5.76-6.85,5.69s-7.42.45-7.28-6c.48-21.32.33-42.67.07-64-.06-4.68,1.4-5.65,5.8-5.59,17.72.26,35.43,0,53.15.2,3.91,0,5.05-1,5-5q-.39-45-.27-90c0-3.69-.84-4.74-4.63-4.67-13.48.25-27,.29-40.46,0-4.24-.1-4.81,1.44-4.78,5.12.17,17.91-.05,35.83.18,53.75.05,4.09-.78,6-5.19,5.31a16.92,16.92,0,0,0-4.82,0c-3.36.44-3.95-1.16-3.93-4.15.1-22.55.19-45.09-.06-67.64-.05-4.48,1.84-4.76,5.35-4.74,18.11.12,36.24-.12,54.35.17,4.78.07,6.5-.79,6.45-6.08-.29-29.59-.23-59.19,0-88.78,0-4.37-.84-5.8-5.52-5.68-13.88.36-27.78.33-41.66,0-4.48-.11-5.18,1.41-5.14,5.43.21,18.72-.19,37.45.26,56.17.15,6.07-3.13,5.25-6.74,5.12s-7.47,1.54-7.36-5.12c.39-22.94.3-45.9,0-68.84-.06-4.81,1.62-5.53,5.87-5.48,18.52.22,37,0,55.57.15,3.06,0,4.59-.26,4.68-4q.87-38.31,2.3-76.62c.15-4.1-.69-5.5-5.11-5.4-13.88.31-27.78.36-41.66,0-4.73-.14-5.59,1.44-5.69,5.69-.32,13.07-1.5,26.13-1.52,39.2,0,6.33-2,7.93-8.1,7.67-4.86-.2-6.43-1.21-6.34-6.32.31-19.32.12-38.65.12-58,0-9.22.09-9.88,9.29-8.7,24.05,3.08,48.19,2.15,72.3,2.27,4.08,0,4.45,1.57,4.46,4.94q.19,57.08.65,114.13,1.17,156.37,2.47,312.75c.5,49.71,1.32,99.42.7,149.12a62.45,62.45,0,0,1-20,45.7C513.65,631,511.79,632.43,509,634.86Z"/><path class="cls-2" d="M471.1,865.55c-15.71,0-30.72,0-45.73,0-3.11,0-3.65-2.48-4.26-4.3-3.26-9.86-9.62-12.61-20-12-17.44,1.07-35,.43-52.51.19-3.8-.06-6.36.93-7.28,4.48-2.62,10.22-9.25,12.58-19.13,11.79-11.33-.91-22.79-.21-35.21-.21,7.37-12.71,14.26-24.61,21.16-36.49Q341,772.63,373.79,716.2c4.51-7.76,6.18-7.77,10.67-.07q42.26,72.52,84.48,145.06C469.62,862.36,470.15,863.62,471.1,865.55Zm-111.73-44h39.36C392.2,808.47,386,796,379.31,782.69Z"/><path class="cls-1" d="M640.57,791.16c0-23.14.1-46.28-.1-69.42,0-4.06.75-5.41,5.16-5.38q48.29.32,96.57,0c4.29,0,6.16.71,5.81,5.52a155.51,155.51,0,0,0,0,19.31c.22,4-1.12,5-5.05,5-17.91-.21-35.82.11-53.72-.22-5-.1-6.13,1.56-5.88,6.13a182.91,182.91,0,0,1,0,19.31c-.18,3.79,1.06,4.7,4.74,4.65,15.69-.2,31.39.06,47.08-.19,3.86-.06,4.71,1.09,4.56,4.72-.29,7-.26,14.08,0,21.12.13,3.45-1,4.38-4.39,4.34-15.28-.17-30.58.18-45.87-.21-5.24-.13-6.49,1.54-6.12,6.42a113.47,113.47,0,0,1,0,17.49c-.42,5.25,1.64,6.24,6.44,6.17,18.51-.27,37,0,55.53-.2,4.5-.06,6.55.77,6.18,5.86a188.89,188.89,0,0,0-.05,19.91c.1,3.18-1,4.11-4.11,4.1q-51.6-.14-103.21,0c-4.49,0-3.5-2.66-3.51-5.08Q640.55,825.86,640.57,791.16Z"/><path class="cls-2" d="M3.71,716.47c15.22,0,30.48.08,45.75-.06,3.3,0,3.9,2.49,5,4.43C67.91,744.56,82,768,93.73,792.59c.57,1.19.8,2.78,2.72,3.45,12.38-26,27-50.76,41.19-75.81,1.29-2.29,2.36-3.84,5.32-3.82,15.07.12,30.14.06,46.09.06C181.79,729,174.9,740.89,168,752.78q-32.33,55.65-64.65,111.3c-4.1,7.06-10.87,7.14-14.91.19Q46.88,792.74,5.35,721.2C4.58,719.87,3.32,718.66,3.71,716.47Z"/><path class="cls-2" d="M842.64,867.16a188,188,0,0,1-56.83-9.61c-2.37-.79-4.53-1.25-3.83-4.74,1.61-8.07,3-16.18,4.28-24.32.47-3,1.33-3.49,4.17-2.15,18.63,8.79,38.41,11.12,58.76,10.14A28,28,0,0,0,865,831.26c7-5.17,7-12.76-.06-18-5.1-3.82-11.17-5.35-17.16-7-15.33-4.09-30.28-9-44.32-16.65-27.21-14.86-21.83-44.33-4.58-58.64,11.39-9.45,24.81-13.86,39.24-15.26,19-1.83,37.71.48,56.24,4.74,2.94.68,4,1.76,3.3,4.92-1.47,6.66-2.77,13.38-3.74,20.12-.56,3.9-2.13,4.76-5.77,3.69a130,130,0,0,0-33.26-5.11c-5.84-.15-11.7,0-17.2,2.22-6.14,2.51-9.94,7.76-9.74,13.2.24,6.34,4.37,9.55,9.69,11.74,12.07,5,25.12,6.83,37.2,11.84a150.58,150.58,0,0,1,22.53,11.3c24.17,15.18,19,42.69,2.56,56-12.8,10.35-27.9,14.7-44,16.18C851.49,866.94,847.06,867,842.64,867.16Z"/><path class="cls-2" d="M593.26,772.37q0,22.65,0,45.3c0,25.61-11.82,40-36.74,45.38-16.73,3.64-33.66,2.26-50.52,2.44-6.15.07-14.38,2.67-17.87-1.12-3.05-3.32-.94-11.44-1-17.45-.06-11.1,0-11.1,11.3-11.1,9.46,0,18.92,0,28.38,0a32.53,32.53,0,0,0,11.85-1.8c7.68-3,11.09-7.85,11.1-16,0-32,.1-64-.12-96,0-4.55,1.12-5.74,5.63-5.59,10.66.36,21.34.33,32,0,4.59-.14,6.19.92,6.09,5.87C593.05,739,593.26,755.66,593.26,772.37Z"/><path class="cls-1" d="M257.76,791.19c0,23.15-.09,46.3.09,69.45,0,3.85-.87,5.12-4.91,5-11.07-.3-22.15-.2-33.21,0-3.13,0-4.58-.36-4.57-4.11q.21-70.35,0-140.7c0-3.31.74-4.49,4.26-4.42,11.27.22,22.55.27,33.82,0,3.9-.1,4.6,1.2,4.57,4.77C257.69,744.49,257.76,767.84,257.76,791.19Z"/></g></g></svg>